<svg width="426" height="200" viewBox="0 0 426 200" fill="none" xmlns="http://www.w3.org/2000/svg">
<g clip-path="url(#clip0_54_18541)">
<rect width="426" height="200" fill="white"/>
<rect x="-2.66656" y="-4.3335" width="432" height="206.667" fill="#6E40C9"/>
<g opacity="0.5">
<path fill-rule="evenodd" clip-rule="evenodd" d="M221.645 165.738C221.645 165.808 221.645 165.879 221.644 165.95L221.646 165.95C221.76 184.716 237.008 199.894 255.801 199.894C274.665 199.894 289.957 184.601 289.957 165.738C289.957 147.787 276.109 133.07 258.513 131.688C276.109 130.306 289.957 115.589 289.957 97.638C289.957 78.7742 274.665 63.4821 255.801 63.4821C236.937 63.4821 221.645 78.7742 221.645 97.638L221.644 97.638C221.53 116.404 206.283 131.581 187.49 131.582C206.353 131.582 221.645 146.874 221.645 165.738ZM253.089 131.688C235.493 133.07 221.645 147.787 221.645 165.738C221.645 165.808 221.645 165.879 221.646 165.95C240.509 165.949 255.801 150.657 255.801 131.794C256.714 131.794 257.618 131.758 258.513 131.688C257.618 131.618 256.714 131.582 255.801 131.582L255.8 131.582C255.686 112.816 240.438 97.638 221.645 97.638C221.645 115.589 235.493 130.306 253.089 131.688ZM253.089 131.688C253.984 131.618 254.888 131.582 255.8 131.582C255.801 131.652 255.801 131.723 255.801 131.794C254.888 131.794 253.984 131.758 253.089 131.688Z" fill="url(#paint0_linear_54_18541)"/>
<path d="M221.644 97.638C221.645 97.5673 221.645 97.4966 221.645 97.4258C221.645 78.562 206.353 63.2699 187.489 63.2699C168.625 63.2699 153.333 78.562 153.333 97.4258C153.333 116.29 168.625 131.582 187.489 131.582M221.644 97.638C202.852 97.6383 187.604 112.816 187.49 131.582M221.644 97.638L221.645 97.638M221.644 97.638C221.53 116.404 206.283 131.581 187.49 131.582M187.49 131.582C187.49 131.601 187.49 131.621 187.489 131.641C187.489 131.692 187.489 131.743 187.489 131.794C187.489 150.657 202.781 165.949 221.644 165.95M187.49 131.582C206.353 131.582 221.645 146.874 221.645 165.738M221.644 165.95C221.53 184.716 206.282 199.894 187.489 199.894M221.644 165.95C221.645 165.879 221.645 165.808 221.645 165.738M221.644 165.95L221.646 165.95M221.645 165.738C221.645 147.787 235.493 133.07 253.089 131.688M221.645 165.738C221.645 165.808 221.645 165.879 221.646 165.95M221.646 165.95C221.76 184.716 237.008 199.894 255.801 199.894C274.665 199.894 289.957 184.601 289.957 165.738C289.957 147.787 276.109 133.07 258.513 131.688M221.646 165.95C240.509 165.949 255.801 150.657 255.801 131.794M258.513 131.688C276.109 130.306 289.957 115.589 289.957 97.638C289.957 78.7742 274.665 63.4821 255.801 63.4821C236.937 63.4821 221.645 78.7742 221.645 97.638M258.513 131.688C257.618 131.758 256.714 131.794 255.801 131.794M258.513 131.688C257.618 131.618 256.714 131.582 255.801 131.582L255.8 131.582M221.645 97.638C240.438 97.638 255.686 112.816 255.8 131.582M221.645 97.638C221.645 115.589 235.493 130.306 253.089 131.688M253.089 131.688C253.984 131.618 254.888 131.582 255.8 131.582M253.089 131.688C253.984 131.758 254.888 131.794 255.801 131.794M255.801 131.794C255.801 131.723 255.801 131.652 255.8 131.582" stroke="white" stroke-opacity="0.4" stroke-width="0.848594"/>
</g>
<g opacity="0.5">
<path fill-rule="evenodd" clip-rule="evenodd" d="M86.2911 29.3263C86.2911 29.2555 86.2913 29.1848 86.2917 29.1142L86.2904 29.1142C86.1763 10.348 70.9282 -4.82959 52.1352 -4.82959C33.2714 -4.8296 17.9793 10.4625 17.9793 29.3263C17.9793 47.2774 31.8274 61.994 49.4234 63.3761C31.8274 64.7582 17.9793 79.4749 17.9793 97.426C17.9793 116.29 33.2714 131.582 52.1352 131.582C70.999 131.582 86.2911 116.29 86.2911 97.426L86.2917 97.426C86.4059 78.66 101.654 63.4826 120.446 63.4822C101.583 63.4819 86.2911 48.1899 86.2911 29.3263ZM54.8469 63.3761C72.443 61.994 86.2911 47.2774 86.2911 29.3263C86.2911 29.2555 86.2909 29.1848 86.2904 29.1142C67.427 29.1145 52.1352 44.4065 52.1352 63.2701C51.2225 63.2701 50.3181 63.3059 49.4234 63.3761C50.3181 63.4464 51.2225 63.4822 52.1352 63.4822L52.1358 63.4822C52.25 82.2484 67.4981 97.426 86.2911 97.426C86.2911 79.4749 72.443 64.7583 54.8469 63.3761ZM54.8469 63.3761C53.9525 63.4464 53.0483 63.4822 52.1358 63.4822C52.1354 63.4116 52.1352 63.3408 52.1352 63.2701C53.0479 63.2701 53.9523 63.3059 54.8469 63.3761Z" fill="url(#paint1_linear_54_18541)"/>
<path d="M86.2917 97.426C86.2913 97.4966 86.2911 97.5674 86.2911 97.6381C86.2911 116.502 101.583 131.794 120.447 131.794C139.311 131.794 154.603 116.502 154.603 97.6381C154.603 78.7743 139.311 63.4822 120.447 63.4822M86.2917 97.426C105.084 97.4256 120.332 82.2482 120.446 63.4822M86.2917 97.426L86.2911 97.426M86.2917 97.426C86.4059 78.66 101.654 63.4826 120.446 63.4822M120.446 63.4822C120.446 63.4625 120.447 63.4429 120.447 63.4232C120.447 63.3722 120.447 63.3211 120.447 63.2701C120.447 44.4065 105.155 29.1145 86.2917 29.1142M120.446 63.4822C101.583 63.4819 86.2911 48.1899 86.2911 29.3263M86.2917 29.1142C86.4059 10.348 101.654 -4.82959 120.447 -4.82959M86.2917 29.1142C86.2913 29.1848 86.2911 29.2555 86.2911 29.3263M86.2917 29.1142L86.2904 29.1142M86.2911 29.3263C86.2911 47.2774 72.443 61.994 54.8469 63.3761M86.2911 29.3263C86.2911 29.2555 86.2909 29.1848 86.2904 29.1142M86.2904 29.1142C86.1763 10.348 70.9282 -4.82959 52.1352 -4.82959C33.2714 -4.8296 17.9793 10.4625 17.9793 29.3263C17.9793 47.2774 31.8274 61.994 49.4234 63.3761M86.2904 29.1142C67.427 29.1145 52.1352 44.4065 52.1352 63.2701M49.4234 63.3761C31.8274 64.7582 17.9793 79.4749 17.9793 97.426C17.9793 116.29 33.2714 131.582 52.1352 131.582C70.999 131.582 86.2911 116.29 86.2911 97.426M49.4234 63.3761C50.3181 63.3059 51.2225 63.2701 52.1352 63.2701M49.4234 63.3761C50.3181 63.4464 51.2225 63.4822 52.1352 63.4822L52.1358 63.4822M86.2911 97.426C67.4981 97.426 52.25 82.2484 52.1358 63.4822M86.2911 97.426C86.2911 79.4749 72.443 64.7583 54.8469 63.3761M54.8469 63.3761C53.9525 63.4464 53.0483 63.4822 52.1358 63.4822M54.8469 63.3761C53.9523 63.3059 53.0479 63.2701 52.1352 63.2701M52.1352 63.2701C52.1352 63.3408 52.1354 63.4116 52.1358 63.4822" stroke="white" stroke-opacity="0.4" stroke-width="0.848594"/>
</g>
<g opacity="0.5">
<path fill-rule="evenodd" clip-rule="evenodd" d="M255.798 131.582C255.727 131.582 255.656 131.581 255.586 131.581V131.582C236.819 131.696 221.642 146.944 221.642 165.737C221.642 184.601 236.934 199.893 255.798 199.893C273.749 199.893 288.465 186.045 289.848 168.449C291.23 186.045 305.946 199.893 323.897 199.893C342.761 199.893 358.053 184.601 358.053 165.737C358.053 146.874 342.761 131.582 323.897 131.582V131.581C305.131 131.467 289.954 116.219 289.954 97.4263C289.953 116.29 274.661 131.582 255.798 131.582ZM289.848 163.026C288.465 145.43 273.749 131.582 255.798 131.582C255.727 131.582 255.656 131.582 255.586 131.582C255.586 150.446 270.878 165.737 289.742 165.737C289.742 166.65 289.777 167.555 289.848 168.449C289.918 167.555 289.954 166.65 289.954 165.737V165.737C308.72 165.623 323.897 150.375 323.897 131.582C305.946 131.582 291.23 145.43 289.848 163.026ZM289.848 163.026C289.918 163.92 289.954 164.824 289.954 165.737C289.883 165.737 289.812 165.737 289.742 165.737C289.742 164.825 289.777 163.92 289.848 163.026Z" fill="url(#paint2_linear_54_18541)"/>
<path d="M323.897 131.581C323.968 131.581 324.039 131.582 324.11 131.582C342.973 131.582 358.265 116.289 358.265 97.4257C358.265 78.5619 342.973 63.2698 324.11 63.2698C305.246 63.2698 289.954 78.5619 289.954 97.4257M323.897 131.581C323.897 112.788 308.72 97.5405 289.954 97.4263M323.897 131.581V131.582M323.897 131.581C305.131 131.467 289.954 116.219 289.954 97.4263M289.954 97.4263C289.934 97.4262 289.914 97.4261 289.895 97.426C289.844 97.4258 289.793 97.4257 289.742 97.4257C270.878 97.4257 255.586 112.717 255.586 131.581M289.954 97.4263C289.953 116.29 274.661 131.582 255.798 131.582M255.586 131.581C236.819 131.467 221.642 116.219 221.642 97.4257M255.586 131.581C255.656 131.581 255.727 131.582 255.798 131.582M255.586 131.581V131.582M255.798 131.582C273.749 131.582 288.465 145.43 289.848 163.026M255.798 131.582C255.727 131.582 255.656 131.582 255.586 131.582M255.586 131.582C236.819 131.696 221.642 146.944 221.642 165.737C221.642 184.601 236.934 199.893 255.798 199.893C273.749 199.893 288.465 186.045 289.848 168.449M255.586 131.582C255.586 150.446 270.878 165.737 289.742 165.737M289.848 168.449C291.23 186.045 305.946 199.893 323.897 199.893C342.761 199.893 358.053 184.601 358.053 165.737C358.053 146.874 342.761 131.582 323.897 131.582M289.848 168.449C289.777 167.555 289.742 166.65 289.742 165.737M289.848 168.449C289.918 167.555 289.954 166.65 289.954 165.737V165.737M323.897 131.582C323.897 150.375 308.72 165.623 289.954 165.737M323.897 131.582C305.946 131.582 291.23 145.43 289.848 163.026M289.848 163.026C289.918 163.92 289.954 164.824 289.954 165.737M289.848 163.026C289.777 163.92 289.742 164.825 289.742 165.737M289.742 165.737C289.812 165.737 289.883 165.737 289.954 165.737" stroke="white" stroke-opacity="0.4" stroke-width="0.848594"/>
</g>
<g opacity="0.5">
<path fill-rule="evenodd" clip-rule="evenodd" d="M460.735 200.318C460.805 200.318 460.876 200.318 460.947 200.318L460.947 200.317C479.713 200.203 494.891 184.955 494.891 166.162C494.891 147.298 479.599 132.006 460.735 132.006C442.784 132.006 428.067 145.854 426.685 163.45C425.303 145.854 410.586 132.006 392.635 132.006C373.771 132.006 358.479 147.298 358.479 166.162C358.479 185.026 373.771 200.318 392.635 200.318L392.635 200.318C411.401 200.433 426.578 215.68 426.579 234.473C426.579 215.61 441.871 200.318 460.735 200.318ZM426.685 168.874C428.067 186.47 442.784 200.318 460.735 200.318C460.805 200.318 460.876 200.318 460.947 200.317C460.947 181.454 445.655 166.162 426.791 166.162C426.791 165.249 426.755 164.345 426.685 163.45C426.615 164.345 426.579 165.249 426.579 166.162L426.579 166.163C407.813 166.277 392.635 181.525 392.635 200.318C410.586 200.318 425.303 186.47 426.685 168.874ZM426.685 168.874C426.615 167.979 426.579 167.075 426.579 166.163C426.649 166.162 426.72 166.162 426.791 166.162C426.791 167.075 426.755 167.979 426.685 168.874Z" fill="url(#paint3_linear_54_18541)"/>
<path d="M392.635 200.318C392.564 200.318 392.494 200.318 392.423 200.318C373.559 200.318 358.267 215.61 358.267 234.474C358.267 253.338 373.559 268.63 392.423 268.63C411.287 268.63 426.579 253.338 426.579 234.474M392.635 200.318C392.635 219.111 407.813 234.359 426.579 234.473M392.635 200.318L392.635 200.318M392.635 200.318C411.401 200.433 426.578 215.68 426.579 234.473M426.579 234.473C426.598 234.473 426.618 234.473 426.638 234.473C426.689 234.474 426.74 234.474 426.791 234.474C445.655 234.474 460.947 219.182 460.947 200.318M426.579 234.473C426.579 215.61 441.871 200.318 460.735 200.318M460.947 200.318C479.713 200.433 494.891 215.681 494.891 234.474M460.947 200.318C460.876 200.318 460.805 200.318 460.735 200.318M460.947 200.318L460.947 200.317M460.735 200.318C442.784 200.318 428.067 186.47 426.685 168.874M460.735 200.318C460.805 200.318 460.876 200.318 460.947 200.317M460.947 200.317C479.713 200.203 494.891 184.955 494.891 166.162C494.891 147.298 479.599 132.006 460.735 132.006C442.784 132.006 428.067 145.854 426.685 163.45M460.947 200.317C460.947 181.454 445.655 166.162 426.791 166.162M426.685 163.45C425.303 145.854 410.586 132.006 392.635 132.006C373.771 132.006 358.479 147.298 358.479 166.162C358.479 185.026 373.771 200.318 392.635 200.318M426.685 163.45C426.755 164.345 426.791 165.249 426.791 166.162M426.685 163.45C426.615 164.345 426.579 165.249 426.579 166.162L426.579 166.163M392.635 200.318C392.635 181.525 407.813 166.277 426.579 166.163M392.635 200.318C410.586 200.318 425.303 186.47 426.685 168.874M426.685 168.874C426.615 167.979 426.579 167.075 426.579 166.163M426.685 168.874C426.755 167.979 426.791 167.075 426.791 166.162M426.791 166.162C426.72 166.162 426.649 166.162 426.579 166.163" stroke="white" stroke-opacity="0.4" stroke-width="0.848594"/>
</g>
<g opacity="0.5">
<path fill-rule="evenodd" clip-rule="evenodd" d="M52.1344 63.4821C52.2051 63.4821 52.2759 63.4824 52.3465 63.4828L52.3465 63.4815C71.1127 63.3673 86.2903 48.1192 86.2903 29.3262C86.2903 10.4624 70.9982 -4.82968 52.1344 -4.82968C34.1833 -4.82969 19.4667 9.01841 18.0846 26.6145C16.7024 9.01841 1.98578 -4.82969 -15.9653 -4.82969C-34.8291 -4.82969 -50.1212 10.4624 -50.1212 29.3262C-50.1212 48.19 -34.8291 63.4821 -15.9653 63.4821L-15.9653 63.4828C2.80066 63.5969 17.9781 78.8447 17.9785 97.6374C17.9788 78.7739 33.2708 63.4821 52.1344 63.4821ZM18.0846 32.038C19.4667 49.634 34.1833 63.4821 52.1344 63.4821C52.2051 63.4821 52.2759 63.4819 52.3465 63.4815C52.3462 44.618 37.0542 29.3262 18.1906 29.3262C18.1906 28.4135 18.1548 27.5091 18.0846 26.6145C18.0143 27.5091 17.9785 28.4135 17.9785 29.3262L17.9785 29.3269C-0.78768 29.441 -15.9653 44.6891 -15.9653 63.4821C1.98578 63.4821 16.7024 49.634 18.0846 32.038ZM18.0846 32.038C18.0143 31.1435 17.9785 30.2394 17.9785 29.3269C18.0491 29.3264 18.1199 29.3262 18.1906 29.3262C18.1906 30.2389 18.1548 31.1433 18.0846 32.038Z" fill="url(#paint4_linear_54_18541)"/>
<path d="M-15.9653 63.4828C-16.0359 63.4823 -16.1067 63.4821 -16.1774 63.4821C-35.0412 63.4821 -50.3333 78.7742 -50.3333 97.638C-50.3333 116.502 -35.0412 131.794 -16.1774 131.794C2.68635 131.794 17.9785 116.502 17.9785 97.638M-15.9653 63.4828C-15.9649 82.2755 -0.787468 97.5232 17.9785 97.6374M-15.9653 63.4828L-15.9653 63.4821M-15.9653 63.4828C2.80066 63.5969 17.9781 78.8447 17.9785 97.6374M17.9785 97.6374C17.9981 97.6375 18.0178 97.6376 18.0375 97.6377C18.0885 97.6379 18.1396 97.638 18.1906 97.638C37.0542 97.638 52.3462 82.3463 52.3465 63.4828M17.9785 97.6374C17.9788 78.7739 33.2708 63.4821 52.1344 63.4821M52.3465 63.4828C71.1127 63.5969 86.2903 78.845 86.2903 97.638M52.3465 63.4828C52.2759 63.4823 52.2051 63.4821 52.1344 63.4821M52.3465 63.4828L52.3465 63.4815M52.1344 63.4821C34.1833 63.4821 19.4667 49.634 18.0846 32.038M52.1344 63.4821C52.2051 63.4821 52.2759 63.4819 52.3465 63.4815M52.3465 63.4815C71.1127 63.3673 86.2903 48.1192 86.2903 29.3262C86.2903 10.4624 70.9982 -4.82968 52.1344 -4.82968C34.1833 -4.82969 19.4667 9.01841 18.0846 26.6145M52.3465 63.4815C52.3462 44.618 37.0542 29.3262 18.1906 29.3262M18.0846 26.6145C16.7024 9.01841 1.98578 -4.82969 -15.9653 -4.82969C-34.8291 -4.82969 -50.1212 10.4624 -50.1212 29.3262C-50.1212 48.19 -34.8291 63.4821 -15.9653 63.4821M18.0846 26.6145C18.1548 27.5091 18.1906 28.4135 18.1906 29.3262M18.0846 26.6145C18.0143 27.5091 17.9785 28.4135 17.9785 29.3262L17.9785 29.3269M-15.9653 63.4821C-15.9653 44.6891 -0.787682 29.441 17.9785 29.3269M-15.9653 63.4821C1.98578 63.4821 16.7024 49.634 18.0846 32.038M18.0846 32.038C18.0143 31.1435 17.9785 30.2394 17.9785 29.3269M18.0846 32.038C18.1548 31.1433 18.1906 30.2389 18.1906 29.3262M18.1906 29.3262C18.1199 29.3262 18.0491 29.3264 17.9785 29.3269" stroke="white" stroke-opacity="0.4" stroke-width="0.848594"/>
</g>
<g opacity="0.5">
<path fill-rule="evenodd" clip-rule="evenodd" d="M289.958 29.5385C289.958 29.4677 289.958 29.397 289.958 29.3263L289.957 29.3263C289.843 10.5602 274.595 -4.61744 255.802 -4.61744C236.938 -4.61744 221.646 10.6747 221.646 29.5385C221.646 47.4895 235.494 62.2062 253.09 63.5883C235.494 64.9704 221.646 79.6871 221.646 97.6381C221.646 116.502 236.938 131.794 255.802 131.794C274.666 131.794 289.958 116.502 289.958 97.6381L289.958 97.6381C290.073 78.8722 305.32 63.6947 324.113 63.6944C305.249 63.694 289.958 48.402 289.958 29.5385ZM258.514 63.5883C276.11 62.2062 289.958 47.4895 289.958 29.5385C289.958 29.4677 289.957 29.397 289.957 29.3263C271.094 29.3267 255.802 44.6187 255.802 63.4822C254.889 63.4822 253.985 63.518 253.09 63.5883C253.985 63.6586 254.889 63.6944 255.802 63.6944L255.802 63.6944C255.917 82.4605 271.165 97.6381 289.958 97.6381C289.958 79.6871 276.11 64.9704 258.514 63.5883ZM258.514 63.5883C257.619 63.6586 256.715 63.6944 255.802 63.6944C255.802 63.6237 255.802 63.553 255.802 63.4822C256.715 63.4822 257.619 63.518 258.514 63.5883Z" fill="url(#paint5_linear_54_18541)"/>
<path d="M289.958 97.6381C289.958 97.7088 289.958 97.7795 289.958 97.8503C289.958 116.714 305.25 132.006 324.114 132.006C342.977 132.006 358.27 116.714 358.27 97.8503C358.27 78.9865 342.977 63.6944 324.114 63.6944M289.958 97.6381C308.751 97.6378 323.999 82.4603 324.113 63.6944M289.958 97.6381L289.958 97.6381M289.958 97.6381C290.073 78.8722 305.32 63.6947 324.113 63.6944M324.113 63.6944C324.113 63.6747 324.113 63.655 324.113 63.6353C324.114 63.5843 324.114 63.5333 324.114 63.4822C324.114 44.6187 308.822 29.3267 289.958 29.3263M324.113 63.6944C305.249 63.694 289.958 48.402 289.958 29.5385M289.958 29.3263C290.073 10.5602 305.321 -4.61743 324.114 -4.61743M289.958 29.3263C289.958 29.397 289.958 29.4677 289.958 29.5385M289.958 29.3263L289.957 29.3263M289.958 29.5385C289.958 47.4895 276.11 62.2062 258.514 63.5883M289.958 29.5385C289.958 29.4677 289.957 29.397 289.957 29.3263M289.957 29.3263C289.843 10.5602 274.595 -4.61744 255.802 -4.61744C236.938 -4.61744 221.646 10.6747 221.646 29.5385C221.646 47.4895 235.494 62.2062 253.09 63.5883M289.957 29.3263C271.094 29.3267 255.802 44.6187 255.802 63.4822M253.09 63.5883C235.494 64.9704 221.646 79.6871 221.646 97.6381C221.646 116.502 236.938 131.794 255.802 131.794C274.666 131.794 289.958 116.502 289.958 97.6381M253.09 63.5883C253.985 63.518 254.889 63.4822 255.802 63.4822M253.09 63.5883C253.985 63.6586 254.889 63.6944 255.802 63.6944L255.802 63.6944M289.958 97.6381C271.165 97.6381 255.917 82.4605 255.802 63.6944M289.958 97.6381C289.958 79.6871 276.11 64.9704 258.514 63.5883M258.514 63.5883C257.619 63.6586 256.715 63.6944 255.802 63.6944M258.514 63.5883C257.619 63.518 256.715 63.4822 255.802 63.4822M255.802 63.4822C255.802 63.553 255.802 63.6237 255.802 63.6944" stroke="white" stroke-opacity="0.4" stroke-width="0.848594"/>
</g>
<g opacity="0.5">
<path fill-rule="evenodd" clip-rule="evenodd" d="M426.581 302.361C426.581 302.432 426.581 302.502 426.581 302.573L426.582 302.573C426.696 321.339 441.944 336.517 460.737 336.517C479.601 336.517 494.893 321.225 494.893 302.361C494.893 284.41 481.045 269.693 463.449 268.311C481.045 266.929 494.893 252.212 494.893 234.261C494.893 215.398 479.601 200.105 460.737 200.105C441.873 200.105 426.581 215.398 426.581 234.261L426.581 234.261C426.467 253.027 411.219 268.205 392.426 268.205C411.29 268.205 426.581 283.497 426.581 302.361ZM458.025 268.311C440.429 269.693 426.581 284.41 426.581 302.361C426.581 302.432 426.582 302.502 426.582 302.573C445.445 302.573 460.737 287.281 460.737 268.417C461.65 268.417 462.554 268.381 463.449 268.311C462.554 268.241 461.65 268.205 460.737 268.205L460.737 268.205C460.622 249.439 445.374 234.261 426.581 234.261C426.581 252.212 440.429 266.929 458.025 268.311ZM458.025 268.311C458.92 268.241 459.824 268.205 460.737 268.205C460.737 268.276 460.737 268.346 460.737 268.417C459.825 268.417 458.92 268.381 458.025 268.311Z" fill="url(#paint6_linear_54_18541)"/>
<path d="M426.581 234.261C426.581 234.191 426.581 234.12 426.581 234.049C426.581 215.185 411.289 199.893 392.425 199.893C373.562 199.893 358.27 215.185 358.27 234.049C358.27 252.913 373.562 268.205 392.425 268.205M426.581 234.261C407.788 234.262 392.54 249.439 392.426 268.205M426.581 234.261L426.581 234.261M426.581 234.261C426.467 253.027 411.219 268.205 392.426 268.205M392.426 268.205C392.426 268.225 392.426 268.244 392.426 268.264C392.426 268.315 392.425 268.366 392.425 268.417C392.425 287.281 407.717 302.573 426.581 302.573M392.426 268.205C411.29 268.205 426.581 283.497 426.581 302.361M426.581 302.573C426.467 321.339 411.218 336.517 392.425 336.517M426.581 302.573C426.581 302.502 426.581 302.432 426.581 302.361M426.581 302.573L426.582 302.573M426.581 302.361C426.581 284.41 440.429 269.693 458.025 268.311M426.581 302.361C426.581 302.432 426.582 302.502 426.582 302.573M426.582 302.573C426.696 321.339 441.944 336.517 460.737 336.517C479.601 336.517 494.893 321.225 494.893 302.361C494.893 284.41 481.045 269.693 463.449 268.311M426.582 302.573C445.445 302.573 460.737 287.281 460.737 268.417M463.449 268.311C481.045 266.929 494.893 252.212 494.893 234.261C494.893 215.398 479.601 200.105 460.737 200.105C441.873 200.105 426.581 215.397 426.581 234.261M463.449 268.311C462.554 268.381 461.65 268.417 460.737 268.417M463.449 268.311C462.554 268.241 461.65 268.205 460.737 268.205L460.737 268.205M426.581 234.261C445.374 234.261 460.622 249.439 460.737 268.205M426.581 234.261C426.581 252.212 440.429 266.929 458.025 268.311M458.025 268.311C458.92 268.241 459.824 268.205 460.737 268.205M458.025 268.311C458.92 268.381 459.825 268.417 460.737 268.417M460.737 268.417C460.737 268.346 460.737 268.276 460.737 268.205" stroke="white" stroke-opacity="0.4" stroke-width="0.848594"/>
</g>
<g opacity="0.5">
<path fill-rule="evenodd" clip-rule="evenodd" d="M17.9812 165.525C17.9812 165.596 17.981 165.667 17.9805 165.738L17.9818 165.738C18.096 184.504 33.3441 199.681 52.1371 199.681C71.0009 199.681 86.293 184.389 86.293 165.526C86.293 147.574 72.4449 132.858 54.8489 131.476C72.4449 130.094 86.293 115.377 86.293 97.4258C86.293 78.5621 71.0009 63.2699 52.1371 63.2699C33.2733 63.2699 17.9812 78.5621 17.9812 97.4258L17.9806 97.4258C17.8664 116.192 2.61866 131.369 -16.1741 131.37C2.68942 131.37 17.9812 146.662 17.9812 165.525ZM49.4253 131.476C31.8293 132.858 17.9812 147.574 17.9812 165.525C17.9812 165.596 17.9814 165.667 17.9818 165.738C36.8453 165.737 52.1371 150.445 52.1371 131.582C53.0498 131.582 53.9542 131.546 54.8489 131.476C53.9542 131.405 53.0498 131.37 52.1371 131.37L52.1365 131.37C52.0223 112.603 36.7742 97.4258 17.9812 97.4258C17.9812 115.377 31.8293 130.094 49.4253 131.476ZM49.4253 131.476C50.3198 131.405 51.2239 131.37 52.1365 131.37C52.1369 131.44 52.1371 131.511 52.1371 131.582C51.2244 131.582 50.32 131.546 49.4253 131.476Z" fill="url(#paint7_linear_54_18541)"/>
<path d="M17.9806 97.4258C17.981 97.3552 17.9812 97.2844 17.9812 97.2137C17.9812 78.3499 2.68908 63.0578 -16.1747 63.0578C-35.0385 63.0578 -50.3306 78.3499 -50.3306 97.2137C-50.3306 116.077 -35.0385 131.37 -16.1747 131.37M17.9806 97.4258C-0.812174 97.4262 -16.0599 112.604 -16.1741 131.37M17.9806 97.4258L17.9812 97.4258M17.9806 97.4258C17.8664 116.192 2.61866 131.369 -16.1741 131.37M-16.1741 131.37C-16.1742 131.389 -16.1743 131.409 -16.1744 131.429C-16.1746 131.48 -16.1747 131.531 -16.1747 131.582C-16.1747 150.445 -0.882946 165.737 17.9805 165.738M-16.1741 131.37C2.68942 131.37 17.9812 146.662 17.9812 165.525M17.9805 165.738C17.8664 184.504 2.6183 199.681 -16.1747 199.681M17.9805 165.738C17.981 165.667 17.9812 165.596 17.9812 165.525M17.9805 165.738L17.9818 165.738M17.9812 165.525C17.9812 147.574 31.8293 132.858 49.4253 131.476M17.9812 165.525C17.9812 165.596 17.9814 165.667 17.9818 165.738M17.9818 165.738C18.096 184.504 33.3441 199.681 52.1371 199.681C71.0009 199.681 86.293 184.389 86.293 165.526C86.293 147.574 72.4449 132.858 54.8489 131.476M17.9818 165.738C36.8453 165.737 52.1371 150.445 52.1371 131.582M54.8489 131.476C72.4449 130.094 86.293 115.377 86.293 97.4258C86.293 78.5621 71.0009 63.2699 52.1371 63.2699C33.2733 63.2699 17.9812 78.562 17.9812 97.4258M54.8489 131.476C53.9542 131.546 53.0498 131.582 52.1371 131.582M54.8489 131.476C53.9542 131.405 53.0498 131.37 52.1371 131.37L52.1365 131.37M17.9812 97.4258C36.7742 97.4258 52.0223 112.603 52.1365 131.37M17.9812 97.4258C17.9812 115.377 31.8293 130.094 49.4253 131.476M49.4253 131.476C50.3198 131.405 51.2239 131.37 52.1365 131.37M49.4253 131.476C50.32 131.546 51.2244 131.582 52.1371 131.582M52.1371 131.582C52.1371 131.511 52.1369 131.44 52.1365 131.37" stroke="white" stroke-opacity="0.4" stroke-width="0.848594"/>
</g>
<g opacity="0.5">
<path fill-rule="evenodd" clip-rule="evenodd" d="M255.797 199.894C255.868 199.894 255.939 199.894 256.009 199.894L256.009 199.893C274.775 199.779 289.953 184.531 289.953 165.738C289.953 146.874 274.661 131.582 255.797 131.582C237.846 131.582 223.129 145.43 221.747 163.026C220.365 145.43 205.649 131.582 187.697 131.582C168.834 131.582 153.542 146.874 153.542 165.738C153.542 184.602 168.834 199.894 187.697 199.894L187.697 199.894C206.463 200.009 221.641 215.256 221.641 234.049C221.642 215.186 236.934 199.894 255.797 199.894ZM221.747 168.45C223.129 186.046 237.846 199.894 255.797 199.894C255.868 199.894 255.939 199.894 256.009 199.893C256.009 181.03 240.717 165.738 221.853 165.738C221.853 164.825 221.818 163.921 221.747 163.026C221.677 163.921 221.641 164.825 221.641 165.738L221.641 165.738C202.875 165.853 187.697 181.101 187.697 199.894C205.648 199.894 220.365 186.046 221.747 168.45ZM221.747 168.45C221.677 167.555 221.641 166.651 221.641 165.738C221.712 165.738 221.783 165.738 221.853 165.738C221.853 166.651 221.818 167.555 221.747 168.45Z" fill="url(#paint8_linear_54_18541)"/>
<path d="M187.697 199.894C187.627 199.894 187.556 199.894 187.485 199.894C168.622 199.894 153.329 215.186 153.329 234.05C153.329 252.913 168.621 268.206 187.485 268.206C206.349 268.206 221.641 252.913 221.641 234.05M187.697 199.894C187.698 218.687 202.875 233.935 221.641 234.049M187.697 199.894L187.697 199.894M187.697 199.894C206.463 200.009 221.641 215.256 221.641 234.049M221.641 234.049C221.661 234.049 221.681 234.049 221.7 234.049C221.751 234.05 221.802 234.05 221.853 234.05C240.717 234.05 256.009 218.758 256.009 199.894M221.641 234.049C221.642 215.186 236.934 199.894 255.797 199.894M256.009 199.894C274.775 200.009 289.953 215.257 289.953 234.05M256.009 199.894C255.939 199.894 255.868 199.894 255.797 199.894M256.009 199.894L256.009 199.893M255.797 199.894C237.846 199.894 223.129 186.046 221.747 168.45M255.797 199.894C255.868 199.894 255.939 199.894 256.009 199.893M256.009 199.893C274.775 199.779 289.953 184.531 289.953 165.738C289.953 146.874 274.661 131.582 255.797 131.582C237.846 131.582 223.129 145.43 221.747 163.026M256.009 199.893C256.009 181.03 240.717 165.738 221.853 165.738M221.747 163.026C220.365 145.43 205.649 131.582 187.697 131.582C168.834 131.582 153.542 146.874 153.542 165.738C153.542 184.602 168.834 199.894 187.697 199.894M221.747 163.026C221.818 163.921 221.853 164.825 221.853 165.738M221.747 163.026C221.677 163.921 221.641 164.825 221.641 165.738L221.641 165.738M187.697 199.894C187.697 181.101 202.875 165.853 221.641 165.738M187.697 199.894C205.648 199.894 220.365 186.046 221.747 168.45M221.747 168.45C221.677 167.555 221.641 166.651 221.641 165.738M221.747 168.45C221.818 167.555 221.853 166.651 221.853 165.738M221.853 165.738C221.783 165.738 221.712 165.738 221.641 165.738" stroke="white" stroke-opacity="0.4" stroke-width="0.848594"/>
</g>
<g opacity="0.5">
<path fill-rule="evenodd" clip-rule="evenodd" d="M52.1364 -4.82929C52.0657 -4.82929 51.9949 -4.82952 51.9243 -4.82994L51.9243 -4.82865C33.1581 -4.71451 17.9805 10.5336 17.9805 29.3266C17.9805 48.1904 33.2726 63.4825 52.1364 63.4825C70.0875 63.4825 84.8041 49.6344 86.1863 32.0384C87.5684 49.6344 102.285 63.4825 120.236 63.4825C139.1 63.4825 154.392 48.1904 154.392 29.3266C154.392 10.4628 139.1 -4.82928 120.236 -4.82928L120.236 -4.82993C101.47 -4.94408 86.2927 -20.1918 86.2923 -38.9845C86.292 -20.1211 71 -4.82929 52.1364 -4.82929ZM86.1863 26.6149C84.8041 9.01881 70.0875 -4.82929 52.1364 -4.82929C52.0657 -4.82929 51.9949 -4.82907 51.9243 -4.82865C51.9246 14.0348 67.2166 29.3266 86.0802 29.3266C86.0802 30.2393 86.116 31.1437 86.1863 32.0384C86.2565 31.1437 86.2923 30.2393 86.2923 29.3266L86.2923 29.326C105.058 29.2118 120.236 13.9637 120.236 -4.82928C102.285 -4.82929 87.5684 9.01881 86.1863 26.6149ZM86.1863 26.6149C86.2565 27.5093 86.2923 28.4135 86.2923 29.326C86.2217 29.3264 86.1509 29.3266 86.0802 29.3266C86.0802 28.4139 86.116 27.5095 86.1863 26.6149Z" fill="url(#paint9_linear_54_18541)"/>
<path d="M120.236 -4.82993C120.307 -4.8295 120.377 -4.82928 120.448 -4.82928C139.312 -4.82928 154.604 -20.1214 154.604 -38.9852C154.604 -57.849 139.312 -73.1411 120.448 -73.1411C101.584 -73.1411 86.2923 -57.849 86.2923 -38.9852M120.236 -4.82993C120.236 -23.6227 105.058 -38.8704 86.2923 -38.9846M120.236 -4.82993L120.236 -4.82928M120.236 -4.82993C101.47 -4.94407 86.2927 -20.1918 86.2923 -38.9846M86.2923 -38.9846C86.2727 -38.9847 86.253 -38.9848 86.2333 -38.9849C86.1823 -38.9851 86.1313 -38.9852 86.0802 -38.9852C67.2166 -38.9852 51.9246 -23.6934 51.9243 -4.82994M86.2923 -38.9846C86.292 -20.1211 71 -4.82929 52.1364 -4.82929M51.9243 -4.82994C33.1581 -4.94409 17.9805 -20.1922 17.9805 -38.9852M51.9243 -4.82994C51.9949 -4.82951 52.0657 -4.82929 52.1364 -4.82929M51.9243 -4.82994L51.9243 -4.82865M52.1364 -4.82929C70.0875 -4.82929 84.8041 9.01881 86.1863 26.6149M52.1364 -4.82929C52.0657 -4.82929 51.9949 -4.82907 51.9243 -4.82865M51.9243 -4.82865C33.1581 -4.71451 17.9805 10.5336 17.9805 29.3266C17.9805 48.1904 33.2726 63.4825 52.1364 63.4825C70.0875 63.4825 84.8041 49.6344 86.1863 32.0384M51.9243 -4.82865C51.9246 14.0348 67.2166 29.3266 86.0802 29.3266M86.1863 32.0384C87.5684 49.6344 102.285 63.4825 120.236 63.4825C139.1 63.4825 154.392 48.1904 154.392 29.3266C154.392 10.4628 139.1 -4.82928 120.236 -4.82928M86.1863 32.0384C86.116 31.1437 86.0802 30.2393 86.0802 29.3266M86.1863 32.0384C86.2565 31.1437 86.2923 30.2393 86.2923 29.3266L86.2923 29.326M120.236 -4.82928C120.236 13.9637 105.058 29.2118 86.2923 29.326M120.236 -4.82928C102.285 -4.82929 87.5684 9.01881 86.1863 26.6149M86.1863 26.6149C86.2565 27.5093 86.2923 28.4135 86.2923 29.326M86.1863 26.6149C86.116 27.5095 86.0802 28.4139 86.0802 29.3266M86.0802 29.3266C86.1509 29.3266 86.2217 29.3264 86.2923 29.326" stroke="white" stroke-opacity="0.4" stroke-width="0.848594"/>
</g>
<g opacity="0.4">
<path d="M52.1554 29.6997H120.286V97.8299H52.1554V29.6997Z" stroke="white" stroke-width="0.266133"/>
<circle cx="86.2205" cy="63.7648" r="34.0651" stroke="white" stroke-width="0.266133"/>
<path d="M86.0897 29.5664C86.0897 48.38 70.8383 63.6315 52.0247 63.6315" stroke="white" stroke-width="0.266133"/>
<path d="M86.0897 97.6969C86.0897 78.8833 70.8383 63.6318 52.0247 63.6318" stroke="white" stroke-width="0.266133"/>
<path d="M120.153 63.6315C101.339 63.6315 86.0878 48.38 86.0878 29.5664" stroke="white" stroke-width="0.266133"/>
<path d="M86.0878 97.6969C86.0878 78.8833 101.339 63.6318 120.153 63.6318" stroke="white" stroke-width="0.266133"/>
<path d="M86.0878 29.5664V97.6966" stroke="white" stroke-width="0.266133"/>
<path d="M120.148 63.6318L52.1511 63.6318" stroke="white" stroke-width="0.266133"/>
<circle cx="52.1561" cy="63.6316" r="0.665334" fill="white"/>
<circle cx="52.1561" cy="97.8296" r="0.665334" fill="white"/>
<circle cx="52.1561" cy="29.6993" r="0.665334" fill="white"/>
<circle cx="86.0908" cy="29.5667" r="0.665334" fill="white"/>
<circle cx="120.286" cy="29.6993" r="0.665334" fill="white"/>
<circle cx="86.0908" cy="63.6316" r="0.665334" fill="white"/>
<circle cx="86.0908" cy="97.8296" r="0.665334" fill="white"/>
<circle cx="120.154" cy="63.6316" r="0.665334" fill="white"/>
<circle cx="120.154" cy="97.8296" r="0.665334" fill="white"/>
<path d="M120.155 29.6997H188.285V97.8299H120.155V29.6997Z" stroke="white" stroke-width="0.266133"/>
<circle cx="154.22" cy="63.7648" r="34.0651" stroke="white" stroke-width="0.266133"/>
<path d="M154.089 29.5667C154.089 48.3803 138.838 63.6317 120.024 63.6317" stroke="white" stroke-width="0.266133"/>
<path d="M154.089 97.6972C154.089 78.8835 138.838 63.6321 120.024 63.6321" stroke="white" stroke-width="0.266133"/>
<path d="M188.153 63.6317C169.339 63.6317 154.088 48.3803 154.088 29.5667" stroke="white" stroke-width="0.266133"/>
<path d="M154.088 97.6972C154.088 78.8835 169.339 63.6321 188.153 63.6321" stroke="white" stroke-width="0.266133"/>
<path d="M154.088 29.5667V97.6968" stroke="white" stroke-width="0.266133"/>
<path d="M188.148 63.6321L120.151 63.6321" stroke="white" stroke-width="0.266133"/>
<circle cx="120.156" cy="63.6316" r="0.665334" fill="white"/>
<circle cx="120.156" cy="97.8299" r="0.665334" fill="white"/>
<circle cx="120.156" cy="29.6993" r="0.665334" fill="white"/>
<circle cx="154.09" cy="29.5667" r="0.665334" fill="white"/>
<circle cx="188.286" cy="29.6993" r="0.665334" fill="white"/>
<circle cx="154.09" cy="63.6316" r="0.665334" fill="white"/>
<circle cx="154.09" cy="97.8299" r="0.665334" fill="white"/>
<circle cx="188.154" cy="63.6316" r="0.665334" fill="white"/>
<circle cx="188.154" cy="97.8299" r="0.665334" fill="white"/>
<path d="M188.155 29.7H256.285V97.8301H188.155V29.7Z" stroke="white" stroke-width="0.266133"/>
<circle cx="222.22" cy="63.765" r="34.0651" stroke="white" stroke-width="0.266133"/>
<path d="M222.089 29.5669C222.089 48.3805 206.838 63.632 188.024 63.632" stroke="white" stroke-width="0.266133"/>
<path d="M222.089 97.6972C222.089 78.8835 206.838 63.6321 188.024 63.6321" stroke="white" stroke-width="0.266133"/>
<path d="M256.152 63.632C237.339 63.632 222.087 48.3805 222.087 29.5669" stroke="white" stroke-width="0.266133"/>
<path d="M222.087 97.6972C222.087 78.8835 237.339 63.6321 256.152 63.6321" stroke="white" stroke-width="0.266133"/>
<path d="M222.087 29.5669V97.6971" stroke="white" stroke-width="0.266133"/>
<path d="M256.148 63.6321L188.15 63.6321" stroke="white" stroke-width="0.266133"/>
<circle cx="188.155" cy="63.6316" r="0.665334" fill="white"/>
<circle cx="188.155" cy="97.8299" r="0.665334" fill="white"/>
<circle cx="188.155" cy="29.6995" r="0.665334" fill="white"/>
<circle cx="222.09" cy="29.5667" r="0.665334" fill="white"/>
<circle cx="256.285" cy="29.6995" r="0.665334" fill="white"/>
<circle cx="222.09" cy="63.6316" r="0.665334" fill="white"/>
<circle cx="222.09" cy="97.8299" r="0.665334" fill="white"/>
<circle cx="256.153" cy="63.6316" r="0.665334" fill="white"/>
<circle cx="256.153" cy="97.8299" r="0.665334" fill="white"/>
<path d="M256.145 29.6997H324.275V97.8299H256.145V29.6997Z" stroke="white" stroke-width="0.266133"/>
<circle cx="290.21" cy="63.7648" r="34.0651" stroke="white" stroke-width="0.266133"/>
<path d="M290.08 29.5664C290.08 48.38 274.828 63.6315 256.015 63.6315" stroke="white" stroke-width="0.266133"/>
<path d="M290.08 97.6969C290.08 78.8833 274.828 63.6318 256.015 63.6318" stroke="white" stroke-width="0.266133"/>
<path d="M324.143 63.6315C305.329 63.6315 290.078 48.38 290.078 29.5664" stroke="white" stroke-width="0.266133"/>
<path d="M290.078 97.6969C290.078 78.8833 305.329 63.6318 324.143 63.6318" stroke="white" stroke-width="0.266133"/>
<path d="M290.078 29.5664V97.6966" stroke="white" stroke-width="0.266133"/>
<path d="M324.139 63.6318L256.142 63.6318" stroke="white" stroke-width="0.266133"/>
<circle cx="256.146" cy="63.6316" r="0.665334" fill="white"/>
<circle cx="256.146" cy="97.8296" r="0.665334" fill="white"/>
<circle cx="256.146" cy="29.6993" r="0.665334" fill="white"/>
<circle cx="290.081" cy="29.5667" r="0.665334" fill="white"/>
<circle cx="324.277" cy="29.6993" r="0.665334" fill="white"/>
<circle cx="290.081" cy="63.6316" r="0.665334" fill="white"/>
<circle cx="290.081" cy="97.8296" r="0.665334" fill="white"/>
<circle cx="324.144" cy="63.6316" r="0.665334" fill="white"/>
<circle cx="324.144" cy="97.8296" r="0.665334" fill="white"/>
<path d="M324.146 29.6997H392.276V97.8299H324.146V29.6997Z" stroke="white" stroke-width="0.266133"/>
<circle cx="358.211" cy="63.7648" r="34.0651" stroke="white" stroke-width="0.266133"/>
<path d="M358.081 29.5664C358.081 48.38 342.829 63.6315 324.016 63.6315" stroke="white" stroke-width="0.266133"/>
<path d="M358.081 97.6969C358.081 78.8833 342.829 63.6318 324.016 63.6318" stroke="white" stroke-width="0.266133"/>
<path d="M392.144 63.6315C373.33 63.6315 358.079 48.38 358.079 29.5664" stroke="white" stroke-width="0.266133"/>
<path d="M358.079 97.6969C358.079 78.8833 373.33 63.6318 392.144 63.6318" stroke="white" stroke-width="0.266133"/>
<path d="M358.079 29.5664V97.6966" stroke="white" stroke-width="0.266133"/>
<path d="M392.139 63.6318L324.142 63.6318" stroke="white" stroke-width="0.266133"/>
<circle cx="324.147" cy="63.6316" r="0.665334" fill="white"/>
<circle cx="324.147" cy="97.8296" r="0.665334" fill="white"/>
<circle cx="324.147" cy="29.6995" r="0.665334" fill="white"/>
<circle cx="358.082" cy="29.5667" r="0.665334" fill="white"/>
<circle cx="392.278" cy="29.6995" r="0.665334" fill="white"/>
<circle cx="358.082" cy="63.6316" r="0.665334" fill="white"/>
<circle cx="358.082" cy="97.8296" r="0.665334" fill="white"/>
<circle cx="392.145" cy="63.6316" r="0.665334" fill="white"/>
<circle cx="392.145" cy="97.8296" r="0.665334" fill="white"/>
<path d="M392.142 29.7H460.272V97.8301H392.142V29.7Z" stroke="white" stroke-width="0.266133"/>
<circle cx="426.207" cy="63.765" r="34.0651" stroke="white" stroke-width="0.266133"/>
<path d="M426.076 29.5667C426.076 48.3803 410.825 63.6317 392.011 63.6317" stroke="white" stroke-width="0.266133"/>
<path d="M426.076 97.6969C426.076 78.8833 410.825 63.6318 392.011 63.6318" stroke="white" stroke-width="0.266133"/>
<path d="M460.139 63.6317C441.326 63.6317 426.074 48.3803 426.074 29.5667" stroke="white" stroke-width="0.266133"/>
<path d="M426.074 97.6969C426.074 78.8833 441.326 63.6318 460.139 63.6318" stroke="white" stroke-width="0.266133"/>
<path d="M426.074 29.5667V97.6968" stroke="white" stroke-width="0.266133"/>
<path d="M460.135 63.6318L392.138 63.6318" stroke="white" stroke-width="0.266133"/>
<circle cx="392.143" cy="63.6316" r="0.665334" fill="white"/>
<circle cx="392.143" cy="97.8296" r="0.665334" fill="white"/>
<circle cx="392.143" cy="29.6995" r="0.665334" fill="white"/>
<circle cx="426.077" cy="29.5667" r="0.665334" fill="white"/>
<circle cx="426.077" cy="63.6316" r="0.665334" fill="white"/>
<circle cx="426.077" cy="97.8296" r="0.665334" fill="white"/>
<path d="M52.1554 97.8303H120.286V165.96H52.1554V97.8303Z" stroke="white" stroke-width="0.266133"/>
<circle cx="86.2205" cy="131.895" r="34.0651" stroke="white" stroke-width="0.266133"/>
<path d="M86.0897 97.6973C86.0897 116.511 70.8383 131.762 52.0247 131.762" stroke="white" stroke-width="0.266133"/>
<path d="M86.0897 165.828C86.0897 147.014 70.8383 131.762 52.0247 131.762" stroke="white" stroke-width="0.266133"/>
<path d="M120.153 131.762C101.339 131.762 86.0878 116.511 86.0878 97.6973" stroke="white" stroke-width="0.266133"/>
<path d="M86.0878 165.828C86.0878 147.014 101.339 131.762 120.153 131.762" stroke="white" stroke-width="0.266133"/>
<path d="M86.0878 97.6973V165.827" stroke="white" stroke-width="0.266133"/>
<path d="M120.148 131.762L52.1511 131.762" stroke="white" stroke-width="0.266133"/>
<circle cx="52.1561" cy="131.762" r="0.665334" fill="white"/>
<circle cx="52.1561" cy="165.96" r="0.665334" fill="white"/>
<circle cx="52.1561" cy="97.8301" r="0.665334" fill="white"/>
<circle cx="86.0908" cy="97.6971" r="0.665334" fill="white"/>
<circle cx="120.286" cy="97.8299" r="0.665334" fill="white"/>
<circle cx="86.0908" cy="131.762" r="0.665334" fill="white"/>
<circle cx="86.0908" cy="165.96" r="0.665334" fill="white"/>
<circle cx="120.154" cy="131.762" r="0.665334" fill="white"/>
<circle cx="120.154" cy="165.96" r="0.665334" fill="white"/>
<path d="M120.155 97.8306H188.285V165.961H120.155V97.8306Z" stroke="white" stroke-width="0.266133"/>
<circle cx="154.22" cy="131.896" r="34.0651" stroke="white" stroke-width="0.266133"/>
<path d="M154.089 97.6973C154.089 116.511 138.838 131.762 120.024 131.762" stroke="white" stroke-width="0.266133"/>
<path d="M154.089 165.828C154.089 147.014 138.838 131.762 120.024 131.762" stroke="white" stroke-width="0.266133"/>
<path d="M188.153 131.762C169.339 131.762 154.088 116.511 154.088 97.6973" stroke="white" stroke-width="0.266133"/>
<path d="M154.088 165.828C154.088 147.014 169.339 131.762 188.153 131.762" stroke="white" stroke-width="0.266133"/>
<path d="M154.088 97.6973V165.827" stroke="white" stroke-width="0.266133"/>
<path d="M188.148 131.762L120.151 131.762" stroke="white" stroke-width="0.266133"/>
<circle cx="120.156" cy="131.762" r="0.665334" fill="white"/>
<circle cx="120.156" cy="165.96" r="0.665334" fill="white"/>
<circle cx="120.156" cy="97.8301" r="0.665334" fill="white"/>
<circle cx="154.09" cy="97.6973" r="0.665334" fill="white"/>
<circle cx="188.286" cy="97.8301" r="0.665334" fill="white"/>
<circle cx="154.09" cy="131.762" r="0.665334" fill="white"/>
<circle cx="154.09" cy="165.96" r="0.665334" fill="white"/>
<circle cx="188.154" cy="131.762" r="0.665334" fill="white"/>
<circle cx="188.154" cy="165.96" r="0.665334" fill="white"/>
<path d="M188.155 97.8306H256.285V165.961H188.155V97.8306Z" stroke="white" stroke-width="0.266133"/>
<circle cx="222.22" cy="131.896" r="34.0651" stroke="white" stroke-width="0.266133"/>
<path d="M222.089 97.6975C222.089 116.511 206.838 131.763 188.024 131.763" stroke="white" stroke-width="0.266133"/>
<path d="M222.089 165.828C222.089 147.014 206.838 131.763 188.024 131.763" stroke="white" stroke-width="0.266133"/>
<path d="M256.152 131.763C237.339 131.763 222.087 116.511 222.087 97.6975" stroke="white" stroke-width="0.266133"/>
<path d="M222.087 165.828C222.087 147.014 237.339 131.763 256.152 131.763" stroke="white" stroke-width="0.266133"/>
<path d="M222.087 97.6975V165.828" stroke="white" stroke-width="0.266133"/>
<path d="M256.148 131.763L188.15 131.763" stroke="white" stroke-width="0.266133"/>
<circle cx="188.155" cy="131.762" r="0.665334" fill="white"/>
<circle cx="188.155" cy="165.961" r="0.665334" fill="white"/>
<circle cx="188.155" cy="97.8301" r="0.665334" fill="white"/>
<circle cx="222.09" cy="97.6973" r="0.665334" fill="white"/>
<circle cx="256.285" cy="97.8301" r="0.665334" fill="white"/>
<circle cx="222.09" cy="131.762" r="0.665334" fill="white"/>
<circle cx="222.09" cy="165.961" r="0.665334" fill="white"/>
<circle cx="256.153" cy="131.762" r="0.665334" fill="white"/>
<circle cx="256.153" cy="165.961" r="0.665334" fill="white"/>
<path d="M256.145 97.8303H324.275V165.96H256.145V97.8303Z" stroke="white" stroke-width="0.266133"/>
<circle cx="290.21" cy="131.895" r="34.0651" stroke="white" stroke-width="0.266133"/>
<path d="M290.08 97.6973C290.08 116.511 274.828 131.762 256.015 131.762" stroke="white" stroke-width="0.266133"/>
<path d="M290.08 165.828C290.08 147.014 274.828 131.762 256.015 131.762" stroke="white" stroke-width="0.266133"/>
<path d="M324.143 131.762C305.329 131.762 290.078 116.511 290.078 97.6973" stroke="white" stroke-width="0.266133"/>
<path d="M290.078 165.828C290.078 147.014 305.329 131.762 324.143 131.762" stroke="white" stroke-width="0.266133"/>
<path d="M290.078 97.6973V165.827" stroke="white" stroke-width="0.266133"/>
<path d="M324.139 131.762L256.142 131.762" stroke="white" stroke-width="0.266133"/>
<circle cx="256.146" cy="131.762" r="0.665334" fill="white"/>
<circle cx="256.146" cy="165.96" r="0.665334" fill="white"/>
<circle cx="256.146" cy="97.8301" r="0.665334" fill="white"/>
<circle cx="290.081" cy="97.6971" r="0.665334" fill="white"/>
<circle cx="324.277" cy="97.8299" r="0.665334" fill="white"/>
<circle cx="290.081" cy="131.762" r="0.665334" fill="white"/>
<circle cx="290.081" cy="165.96" r="0.665334" fill="white"/>
<circle cx="324.144" cy="131.762" r="0.665334" fill="white"/>
<circle cx="324.144" cy="165.96" r="0.665334" fill="white"/>
<path d="M324.146 97.8303H392.276V165.96H324.146V97.8303Z" stroke="white" stroke-width="0.266133"/>
<circle cx="358.211" cy="131.895" r="34.0651" stroke="white" stroke-width="0.266133"/>
<path d="M358.081 97.6973C358.081 116.511 342.829 131.762 324.016 131.762" stroke="white" stroke-width="0.266133"/>
<path d="M358.081 165.828C358.081 147.014 342.829 131.762 324.016 131.762" stroke="white" stroke-width="0.266133"/>
<path d="M392.144 131.762C373.33 131.762 358.079 116.511 358.079 97.6973" stroke="white" stroke-width="0.266133"/>
<path d="M358.079 165.828C358.079 147.014 373.33 131.762 392.144 131.762" stroke="white" stroke-width="0.266133"/>
<path d="M358.079 97.6973V165.827" stroke="white" stroke-width="0.266133"/>
<path d="M392.139 131.762L324.142 131.762" stroke="white" stroke-width="0.266133"/>
<circle cx="324.147" cy="131.762" r="0.665334" fill="white"/>
<circle cx="324.147" cy="165.96" r="0.665334" fill="white"/>
<circle cx="324.147" cy="97.8301" r="0.665334" fill="white"/>
<circle cx="358.082" cy="97.6971" r="0.665334" fill="white"/>
<circle cx="392.278" cy="97.8299" r="0.665334" fill="white"/>
<circle cx="358.082" cy="131.762" r="0.665334" fill="white"/>
<circle cx="358.082" cy="165.96" r="0.665334" fill="white"/>
<circle cx="392.145" cy="131.762" r="0.665334" fill="white"/>
<circle cx="392.145" cy="165.96" r="0.665334" fill="white"/>
<path d="M392.142 97.8308H460.272V165.961H392.142V97.8308Z" stroke="white" stroke-width="0.266133"/>
<circle cx="426.207" cy="131.896" r="34.0651" stroke="white" stroke-width="0.266133"/>
<path d="M426.076 97.6978C426.076 116.511 410.825 131.763 392.011 131.763" stroke="white" stroke-width="0.266133"/>
<path d="M426.076 165.828C426.076 147.014 410.825 131.763 392.011 131.763" stroke="white" stroke-width="0.266133"/>
<path d="M460.139 131.763C441.326 131.763 426.074 116.511 426.074 97.6978" stroke="white" stroke-width="0.266133"/>
<path d="M426.074 165.828C426.074 147.014 441.326 131.763 460.139 131.763" stroke="white" stroke-width="0.266133"/>
<path d="M426.074 97.6978V165.828" stroke="white" stroke-width="0.266133"/>
<path d="M460.135 131.763L392.138 131.763" stroke="white" stroke-width="0.266133"/>
<circle cx="392.143" cy="131.762" r="0.665334" fill="white"/>
<circle cx="392.143" cy="165.961" r="0.665334" fill="white"/>
<circle cx="392.143" cy="97.8304" r="0.665334" fill="white"/>
<circle cx="426.077" cy="97.6976" r="0.665334" fill="white"/>
<circle cx="426.077" cy="131.762" r="0.665334" fill="white"/>
<circle cx="426.077" cy="165.961" r="0.665334" fill="white"/>
<path d="M52.1555 165.961H120.286V234.091H52.1555V165.961Z" stroke="white" stroke-width="0.266133"/>
<circle cx="86.2205" cy="200.026" r="34.0651" stroke="white" stroke-width="0.266133"/>
<path d="M86.0898 165.828C86.0898 184.641 70.8383 199.893 52.0247 199.893" stroke="white" stroke-width="0.266133"/>
<path d="M86.0898 233.958C86.0898 215.144 70.8383 199.893 52.0247 199.893" stroke="white" stroke-width="0.266133"/>
<path d="M120.153 199.893C101.339 199.893 86.0878 184.641 86.0878 165.828" stroke="white" stroke-width="0.266133"/>
<path d="M86.0878 233.958C86.0878 215.144 101.339 199.893 120.153 199.893" stroke="white" stroke-width="0.266133"/>
<path d="M86.0878 165.828V233.958" stroke="white" stroke-width="0.266133"/>
<path d="M120.148 199.893L52.1511 199.893" stroke="white" stroke-width="0.266133"/>
<circle cx="52.1561" cy="199.892" r="0.665334" fill="white"/>
<circle cx="52.1561" cy="165.96" r="0.665334" fill="white"/>
<circle cx="86.0908" cy="165.827" r="0.665334" fill="white"/>
<circle cx="120.286" cy="165.96" r="0.665334" fill="white"/>
<circle cx="86.0908" cy="199.892" r="0.665334" fill="white"/>
<circle cx="120.154" cy="199.892" r="0.665334" fill="white"/>
<path d="M120.155 165.961H188.285V234.091H120.155V165.961Z" stroke="white" stroke-width="0.266133"/>
<circle cx="154.22" cy="200.026" r="34.0651" stroke="white" stroke-width="0.266133"/>
<path d="M154.089 165.828C154.089 184.641 138.838 199.893 120.024 199.893" stroke="white" stroke-width="0.266133"/>
<path d="M154.089 233.958C154.089 215.144 138.838 199.893 120.024 199.893" stroke="white" stroke-width="0.266133"/>
<path d="M188.153 199.893C169.339 199.893 154.088 184.641 154.088 165.828" stroke="white" stroke-width="0.266133"/>
<path d="M154.088 233.958C154.088 215.144 169.339 199.893 188.153 199.893" stroke="white" stroke-width="0.266133"/>
<path d="M154.088 165.828V233.958" stroke="white" stroke-width="0.266133"/>
<path d="M188.148 199.893L120.151 199.893" stroke="white" stroke-width="0.266133"/>
<circle cx="120.156" cy="199.892" r="0.665334" fill="white"/>
<circle cx="120.156" cy="165.96" r="0.665334" fill="white"/>
<circle cx="154.09" cy="165.827" r="0.665334" fill="white"/>
<circle cx="188.286" cy="165.96" r="0.665334" fill="white"/>
<circle cx="154.09" cy="199.892" r="0.665334" fill="white"/>
<circle cx="188.154" cy="199.892" r="0.665334" fill="white"/>
<path d="M188.155 165.961H256.285V234.091H188.155V165.961Z" stroke="white" stroke-width="0.266133"/>
<circle cx="222.22" cy="200.026" r="34.0651" stroke="white" stroke-width="0.266133"/>
<path d="M222.089 165.828C222.089 184.641 206.838 199.893 188.024 199.893" stroke="white" stroke-width="0.266133"/>
<path d="M222.089 233.958C222.089 215.144 206.838 199.893 188.024 199.893" stroke="white" stroke-width="0.266133"/>
<path d="M256.152 199.893C237.339 199.893 222.087 184.641 222.087 165.828" stroke="white" stroke-width="0.266133"/>
<path d="M222.087 233.958C222.087 215.144 237.339 199.893 256.152 199.893" stroke="white" stroke-width="0.266133"/>
<path d="M222.087 165.828V233.958" stroke="white" stroke-width="0.266133"/>
<path d="M256.148 199.893L188.15 199.893" stroke="white" stroke-width="0.266133"/>
<circle cx="188.155" cy="199.892" r="0.665334" fill="white"/>
<circle cx="188.155" cy="165.96" r="0.665334" fill="white"/>
<circle cx="222.09" cy="165.827" r="0.665334" fill="white"/>
<circle cx="256.285" cy="165.96" r="0.665334" fill="white"/>
<circle cx="222.09" cy="199.892" r="0.665334" fill="white"/>
<circle cx="256.153" cy="199.892" r="0.665334" fill="white"/>
<path d="M256.145 165.96H324.275V234.091H256.145V165.96Z" stroke="white" stroke-width="0.266133"/>
<circle cx="290.21" cy="200.026" r="34.0651" stroke="white" stroke-width="0.266133"/>
<path d="M290.08 165.827C290.08 184.641 274.828 199.892 256.015 199.892" stroke="white" stroke-width="0.266133"/>
<path d="M290.08 233.958C290.08 215.144 274.828 199.893 256.015 199.893" stroke="white" stroke-width="0.266133"/>
<path d="M324.143 199.892C305.329 199.892 290.078 184.641 290.078 165.827" stroke="white" stroke-width="0.266133"/>
<path d="M290.078 233.958C290.078 215.144 305.329 199.893 324.143 199.893" stroke="white" stroke-width="0.266133"/>
<path d="M290.078 165.827V233.958" stroke="white" stroke-width="0.266133"/>
<path d="M324.138 199.893L256.141 199.893" stroke="white" stroke-width="0.266133"/>
<circle cx="256.146" cy="199.892" r="0.665334" fill="white"/>
<circle cx="256.146" cy="165.96" r="0.665334" fill="white"/>
<circle cx="290.081" cy="165.827" r="0.665334" fill="white"/>
<circle cx="324.277" cy="165.96" r="0.665334" fill="white"/>
<circle cx="290.081" cy="199.892" r="0.665334" fill="white"/>
<circle cx="324.144" cy="199.892" r="0.665334" fill="white"/>
<path d="M324.146 165.961H392.276V234.091H324.146V165.961Z" stroke="white" stroke-width="0.266133"/>
<circle cx="358.211" cy="200.026" r="34.0651" stroke="white" stroke-width="0.266133"/>
<path d="M358.08 165.828C358.08 184.641 342.829 199.893 324.015 199.893" stroke="white" stroke-width="0.266133"/>
<path d="M358.08 233.958C358.08 215.144 342.829 199.893 324.015 199.893" stroke="white" stroke-width="0.266133"/>
<path d="M392.144 199.893C373.33 199.893 358.078 184.641 358.078 165.828" stroke="white" stroke-width="0.266133"/>
<path d="M358.078 233.958C358.078 215.144 373.33 199.893 392.144 199.893" stroke="white" stroke-width="0.266133"/>
<path d="M358.078 165.828V233.958" stroke="white" stroke-width="0.266133"/>
<path d="M392.139 199.893L324.142 199.893" stroke="white" stroke-width="0.266133"/>
<circle cx="324.147" cy="199.892" r="0.665334" fill="white"/>
<circle cx="324.147" cy="165.96" r="0.665334" fill="white"/>
<circle cx="358.081" cy="165.827" r="0.665334" fill="white"/>
<circle cx="392.278" cy="165.96" r="0.665334" fill="white"/>
<circle cx="358.081" cy="199.892" r="0.665334" fill="white"/>
<circle cx="392.145" cy="199.892" r="0.665334" fill="white"/>
<path d="M392.142 165.961H460.272V234.091H392.142V165.961Z" stroke="white" stroke-width="0.266133"/>
<circle cx="426.207" cy="200.026" r="34.0651" stroke="white" stroke-width="0.266133"/>
<path d="M426.076 165.828C426.076 184.641 410.825 199.893 392.011 199.893" stroke="white" stroke-width="0.266133"/>
<path d="M426.076 233.958C426.076 215.144 410.825 199.893 392.011 199.893" stroke="white" stroke-width="0.266133"/>
<path d="M460.139 199.893C441.326 199.893 426.074 184.641 426.074 165.828" stroke="white" stroke-width="0.266133"/>
<path d="M426.074 233.958C426.074 215.144 441.326 199.893 460.139 199.893" stroke="white" stroke-width="0.266133"/>
<path d="M426.074 165.828V233.958" stroke="white" stroke-width="0.266133"/>
<path d="M460.135 199.893L392.138 199.893" stroke="white" stroke-width="0.266133"/>
<circle cx="392.143" cy="199.892" r="0.665334" fill="white"/>
<circle cx="392.143" cy="165.96" r="0.665334" fill="white"/>
<circle cx="426.077" cy="165.827" r="0.665334" fill="white"/>
<circle cx="426.077" cy="199.892" r="0.665334" fill="white"/>
</g>
<g opacity="0.4">
<path d="M-16.0155 -38.4045H52.1147V29.7256H-16.0155V-38.4045Z" stroke="white" stroke-width="0.266133"/>
<circle cx="18.0496" cy="-4.33946" r="34.0651" stroke="white" stroke-width="0.266133"/>
<path d="M17.9188 29.5929C17.9188 10.7793 2.66739 -4.47217 -16.1462 -4.47217" stroke="white" stroke-width="0.266133"/>
<path d="M17.9168 29.5929C17.9168 10.7793 33.1683 -4.47217 51.9819 -4.47217" stroke="white" stroke-width="0.266133"/>
<path d="M17.9168 -38.5378V29.5923" stroke="white" stroke-width="0.266133"/>
<circle cx="17.9198" cy="29.7254" r="0.665334" fill="white"/>
<circle cx="51.9829" cy="29.7254" r="0.665334" fill="white"/>
<path d="M-16.0155 29.7253H52.1147V97.8555H-16.0155V29.7253Z" stroke="white" stroke-width="0.266133"/>
<circle cx="18.0496" cy="63.7904" r="34.0651" stroke="white" stroke-width="0.266133"/>
<path d="M17.9188 29.592C17.9188 48.4057 2.66739 63.6571 -16.1462 63.6571" stroke="white" stroke-width="0.266133"/>
<path d="M17.9188 97.723C17.9188 78.9094 2.66739 63.658 -16.1462 63.658" stroke="white" stroke-width="0.266133"/>
<path d="M51.9819 63.6571C33.1683 63.6571 17.9168 48.4057 17.9168 29.592" stroke="white" stroke-width="0.266133"/>
<path d="M17.9168 97.723C17.9168 78.9094 33.1683 63.658 51.9819 63.658" stroke="white" stroke-width="0.266133"/>
<path d="M17.9168 29.592V97.7222" stroke="white" stroke-width="0.266133"/>
<path d="M51.9772 63.658L-16.0199 63.658" stroke="white" stroke-width="0.266133"/>
<circle cx="17.9198" cy="29.5923" r="0.665334" fill="white"/>
<circle cx="52.115" cy="29.7251" r="0.665334" fill="white"/>
<circle cx="17.9198" cy="63.6575" r="0.665334" fill="white"/>
<circle cx="17.9198" cy="97.8553" r="0.665334" fill="white"/>
<circle cx="51.9829" cy="63.6575" r="0.665334" fill="white"/>
<circle cx="51.9829" cy="97.8553" r="0.665334" fill="white"/>
<path d="M-16.0155 97.8555H52.1147V165.986H-16.0155V97.8555Z" stroke="white" stroke-width="0.266133"/>
<circle cx="18.0496" cy="131.921" r="34.0651" stroke="white" stroke-width="0.266133"/>
<path d="M17.9188 97.7222C17.9188 116.536 2.66739 131.787 -16.1462 131.787" stroke="white" stroke-width="0.266133"/>
<path d="M17.9188 165.853C17.9188 147.039 2.66739 131.788 -16.1462 131.788" stroke="white" stroke-width="0.266133"/>
<path d="M51.9819 131.787C33.1683 131.787 17.9168 116.536 17.9168 97.7222" stroke="white" stroke-width="0.266133"/>
<path d="M17.9168 165.853C17.9168 147.039 33.1683 131.788 51.9819 131.788" stroke="white" stroke-width="0.266133"/>
<path d="M17.9168 97.7222V165.852" stroke="white" stroke-width="0.266133"/>
<path d="M51.9772 131.788L-16.0199 131.788" stroke="white" stroke-width="0.266133"/>
<circle cx="17.9198" cy="97.7225" r="0.665334" fill="white"/>
<circle cx="52.115" cy="97.8555" r="0.665334" fill="white"/>
<circle cx="17.9198" cy="131.788" r="0.665334" fill="white"/>
<circle cx="17.9198" cy="165.986" r="0.665334" fill="white"/>
<circle cx="51.9829" cy="131.788" r="0.665334" fill="white"/>
<circle cx="51.9829" cy="165.986" r="0.665334" fill="white"/>
</g>
<g opacity="0.4">
<path d="M-15.6683 -38.4778H52.4618V29.6524H-15.6683V-38.4778Z" stroke="white" stroke-width="0.266133"/>
<circle cx="18.3967" cy="-4.4127" r="34.0651" stroke="white" stroke-width="0.266133"/>
<path d="M18.2658 29.5194C18.2658 10.7058 3.01431 -4.54565 -15.7993 -4.54565" stroke="white" stroke-width="0.266133"/>
<path d="M18.2638 29.5194C18.2638 10.7058 33.5152 -4.54565 52.3289 -4.54565" stroke="white" stroke-width="0.266133"/>
<path d="M18.2638 -38.6111V29.5191" stroke="white" stroke-width="0.266133"/>
<circle cx="18.267" cy="29.6521" r="0.665334" fill="white"/>
<circle cx="52.3301" cy="29.6521" r="0.665334" fill="white"/>
<path d="M52.3312 -38.4778H120.461V29.6524H52.3312V-38.4778Z" stroke="white" stroke-width="0.266133"/>
<circle cx="86.3963" cy="-4.4127" r="34.0651" stroke="white" stroke-width="0.266133"/>
<path d="M86.2655 29.5194C86.2655 10.7058 71.0141 -4.54565 52.2004 -4.54565" stroke="white" stroke-width="0.266133"/>
<path d="M86.2635 29.5194C86.2635 10.7058 101.515 -4.54565 120.329 -4.54565" stroke="white" stroke-width="0.266133"/>
<path d="M86.2635 -38.6111V29.5191" stroke="white" stroke-width="0.266133"/>
<circle cx="52.3318" cy="29.6521" r="0.665334" fill="white"/>
<circle cx="86.2665" cy="29.6521" r="0.665334" fill="white"/>
<circle cx="120.33" cy="29.6521" r="0.665334" fill="white"/>
<path d="M120.331 -38.4778H188.461V29.6524H120.331V-38.4778Z" stroke="white" stroke-width="0.266133"/>
<circle cx="154.396" cy="-4.4127" r="34.0651" stroke="white" stroke-width="0.266133"/>
<path d="M154.265 29.5194C154.265 10.7058 139.014 -4.54565 120.2 -4.54565" stroke="white" stroke-width="0.266133"/>
<path d="M154.263 29.5194C154.263 10.7058 169.515 -4.54565 188.328 -4.54565" stroke="white" stroke-width="0.266133"/>
<path d="M154.263 -38.6111V29.5191" stroke="white" stroke-width="0.266133"/>
<circle cx="120.331" cy="29.6521" r="0.665334" fill="white"/>
<circle cx="154.266" cy="29.6521" r="0.665334" fill="white"/>
<circle cx="188.329" cy="29.6521" r="0.665334" fill="white"/>
<path d="M188.321 -38.4778H256.451V29.6524H188.321V-38.4778Z" stroke="white" stroke-width="0.266133"/>
<circle cx="222.386" cy="-4.4127" r="34.0651" stroke="white" stroke-width="0.266133"/>
<path d="M222.256 29.5194C222.256 10.7058 207.004 -4.54565 188.19 -4.54565" stroke="white" stroke-width="0.266133"/>
<path d="M222.253 29.5194C222.253 10.7058 237.505 -4.54565 256.319 -4.54565" stroke="white" stroke-width="0.266133"/>
<path d="M222.253 -38.6111V29.5191" stroke="white" stroke-width="0.266133"/>
<circle cx="188.322" cy="29.6521" r="0.665334" fill="white"/>
<circle cx="222.257" cy="29.6521" r="0.665334" fill="white"/>
<circle cx="256.32" cy="29.6521" r="0.665334" fill="white"/>
<path d="M256.322 -38.4775H324.453V29.6526H256.322V-38.4775Z" stroke="white" stroke-width="0.266133"/>
<circle cx="290.387" cy="-4.41246" r="34.0651" stroke="white" stroke-width="0.266133"/>
<path d="M290.256 29.5197C290.256 10.706 275.005 -4.54541 256.191 -4.54541" stroke="white" stroke-width="0.266133"/>
<path d="M290.255 29.5197C290.255 10.706 305.506 -4.54541 324.32 -4.54541" stroke="white" stroke-width="0.266133"/>
<path d="M290.255 -38.6108V29.5193" stroke="white" stroke-width="0.266133"/>
<circle cx="256.323" cy="29.6524" r="0.665334" fill="white"/>
<circle cx="290.258" cy="29.6524" r="0.665334" fill="white"/>
<circle cx="324.321" cy="29.6524" r="0.665334" fill="white"/>
<path d="M324.318 -38.4778H392.448V29.6524H324.318V-38.4778Z" stroke="white" stroke-width="0.266133"/>
<circle cx="358.383" cy="-4.4127" r="34.0651" stroke="white" stroke-width="0.266133"/>
<path d="M358.252 29.5194C358.252 10.7058 343.001 -4.54565 324.187 -4.54565" stroke="white" stroke-width="0.266133"/>
<path d="M358.25 29.5194C358.25 10.7058 373.502 -4.54565 392.315 -4.54565" stroke="white" stroke-width="0.266133"/>
<path d="M358.25 -38.6111V29.5191" stroke="white" stroke-width="0.266133"/>
<circle cx="324.319" cy="29.6521" r="0.665334" fill="white"/>
<circle cx="358.253" cy="29.6521" r="0.665334" fill="white"/>
<circle cx="392.316" cy="29.6521" r="0.665334" fill="white"/>
</g>
<g style="mix-blend-mode:overlay">
<path d="M429.333 -3.66675H-2.66656V204H429.333V-3.66675Z" fill="#00FF0A"/>
</g>
</g>
<defs>
<linearGradient id="paint0_linear_54_18541" x1="153.333" y1="131.582" x2="289.957" y2="131.582" gradientUnits="userSpaceOnUse">
<stop offset="0.219152" stop-color="#F85149"/>
<stop offset="0.753983" stop-color="#8957E5"/>
</linearGradient>
<linearGradient id="paint1_linear_54_18541" x1="154.603" y1="63.4822" x2="17.9793" y2="63.4822" gradientUnits="userSpaceOnUse">
<stop offset="0.219152" stop-color="#F85149"/>
<stop offset="0.753983" stop-color="#8957E5"/>
</linearGradient>
<linearGradient id="paint2_linear_54_18541" x1="289.954" y1="63.2698" x2="289.954" y2="199.893" gradientUnits="userSpaceOnUse">
<stop offset="0.219152" stop-color="#F85149"/>
<stop offset="0.753983" stop-color="#8957E5"/>
</linearGradient>
<linearGradient id="paint3_linear_54_18541" x1="426.579" y1="268.63" x2="426.579" y2="132.006" gradientUnits="userSpaceOnUse">
<stop offset="0.219152" stop-color="#F85149"/>
<stop offset="0.753983" stop-color="#8957E5"/>
</linearGradient>
<linearGradient id="paint4_linear_54_18541" x1="17.9785" y1="131.794" x2="17.9785" y2="-4.82969" gradientUnits="userSpaceOnUse">
<stop offset="0.219152" stop-color="#F85149"/>
<stop offset="0.753983" stop-color="#8957E5"/>
</linearGradient>
<linearGradient id="paint5_linear_54_18541" x1="358.27" y1="63.6944" x2="221.646" y2="63.6944" gradientUnits="userSpaceOnUse">
<stop offset="0.219152" stop-color="#F85149"/>
<stop offset="0.753983" stop-color="#8957E5"/>
</linearGradient>
<linearGradient id="paint6_linear_54_18541" x1="358.27" y1="268.205" x2="494.893" y2="268.205" gradientUnits="userSpaceOnUse">
<stop offset="0.219152" stop-color="#F85149"/>
<stop offset="0.753983" stop-color="#8957E5"/>
</linearGradient>
<linearGradient id="paint7_linear_54_18541" x1="-50.3306" y1="131.37" x2="86.293" y2="131.37" gradientUnits="userSpaceOnUse">
<stop offset="0.219152" stop-color="#F85149"/>
<stop offset="0.753983" stop-color="#8957E5"/>
</linearGradient>
<linearGradient id="paint8_linear_54_18541" x1="221.641" y1="268.206" x2="221.641" y2="131.582" gradientUnits="userSpaceOnUse">
<stop offset="0.219152" stop-color="#F85149"/>
<stop offset="0.753983" stop-color="#8957E5"/>
</linearGradient>
<linearGradient id="paint9_linear_54_18541" x1="86.2923" y1="-73.1411" x2="86.2923" y2="63.4825" gradientUnits="userSpaceOnUse">
<stop offset="0.219152" stop-color="#F85149"/>
<stop offset="0.753983" stop-color="#8957E5"/>
</linearGradient>
<clipPath id="clip0_54_18541">
<rect width="426" height="200" fill="white"/>
</clipPath>
</defs>
</svg>
